# xmcd
#
# Track frame offsets:
#	150
#	3622
#	25084
#	44584
#	61101
#	79958
#	102234
#	124983
#	131332
#	146362
#	161372
#	176591
#	194418
#	219915
#	251465
#
# Disc length: 3555 seconds
#
# Revision: 0
# Processed by: cddbd v1.4PL0 Copyright (c) Steve Scherf et al.
# Submitted via: dBpowerAMP V4.0
#
DISCID=c80de10f
DTITLE=Musiq - aijuswanasing
DYEAR=1900
DGENRE=R&B
TTITLE0=Scratch Interlude
TTITLE1=Girl Next Door
TTITLE2=You and Me 
TTITLE3=Just Friends
TTITLE4=Mary go round
TTITLE5=143
TTITLE6=Love
TTITLE7=My girl
TTITLE8=Musiq Soulchild 
TTITLE9=Seventeen
TTITLE10=L' is gone 
TTITLE11=Speechless
TTITLE12=Poparatzi 
TTITLE13=Settle for my love
TTITLE14=You be alright
EXTD=
EXTT0=
EXTT1=
EXTT2=
EXTT3=
EXTT4=
EXTT5=
EXTT6=
EXTT7=
EXTT8=
EXTT9=
EXTT10=
EXTT11=
EXTT12=
EXTT13=
EXTT14=
PLAYORDER=
